# xmcd CD database file
#
# Track frame offsets:
#	150
#	36211
#	52467
#	79146
#	98456
#	121217
#	142625
#	158829
#	183127
#
# Disc length: 2698 seconds
#
# Revision: 0
# Processed by: cddbd v1.5.2PL0 Copyright (c) Steve Scherf et al.
# Submitted via: jetAudio 7
#
DISCID=690a8809
DTITLE=Ngoc Khue - Ben Bo Ao Nha Minh
DYEAR=1900
DGENRE=Vietnam
TTITLE0=Ben bo ao nha minh
TTITLE1=Nguoi o, nguoi ve
TTITLE2=Gio mua ve
TTITLE3=Cap Ba la
TTITLE4=Ngoi tua man thuyen
TTITLE5=Da trong chong
TTITLE6=De Em mo
TTITLE7=Chuon chuon ot
TTITLE8=Bonus - Cap Ba la
EXTD=
EXTT0=
EXTT1=
EXTT2=
EXTT3=
EXTT4=
EXTT5=
EXTT6=
EXTT7=
EXTT8=
PLAYORDER=
